<?xml version="1.0" encoding="utf-8"?>
<!-- Generator: Adobe Illustrator 22.0.1, SVG Export Plug-In . SVG Version: 6.00 Build 0)  -->
<svg version="1.1" id="Ebene_1" xmlns="http://www.w3.org/2000/svg" xmlns:xlink="http://www.w3.org/1999/xlink" x="0px" y="0px"
	 viewBox="0 0 24 24" style="enable-background:new 0 0 24 24;" xml:space="preserve">
<style type="text/css">
	.st0{fill:none;}
</style>
<rect x="0" y="0" class="st0" width="24" height="24"/>
<path d="M21.8,12.2c0,1.2,0,4.3-1.3,4.6c-1.1,0.3-4-3.1-4-3.1s-1.7,2.8-4.2,4.1l0,0c-0.9,0.5-2,0.8-3.3,0.8c-2.9,0-6.9-3.3-6.9-6.5
	s4-6.5,6.9-6.5c1.3,0,2.4,0.3,3.3,0.8l0,0c2.5,1.3,4.2,4.1,4.2,4.1s2.9-3.4,4-3.1C21.8,7.9,21.8,10.9,21.8,12.2z"/>
</svg>
