<?xml version="1.0" encoding="utf-8"?>
<!-- Generator: Adobe Illustrator 22.0.1, SVG Export Plug-In . SVG Version: 6.00 Build 0)  -->
<svg version="1.1" id="Ebene_1" xmlns="http://www.w3.org/2000/svg" xmlns:xlink="http://www.w3.org/1999/xlink" x="0px" y="0px"
	 viewBox="0 0 24 24" style="enable-background:new 0 0 24 24;" xml:space="preserve">
<style type="text/css">
	.st0{fill:none;}
</style>
<rect x="0" class="st0" width="24" height="24"/>
<path d="M18.1,15.4c0,3.4-2.8,6.2-6.2,6.2s-6.2-2.8-6.2-6.2S8.6,9.2,12,9.2S18.1,12,18.1,15.4z M5.5,4.5C4,4.5,2.8,5.8,2.8,7.3
	S4,10,5.5,10s2.7-1.2,2.7-2.7S7,4.5,5.5,4.5z M18.5,4.5c-1.5,0-2.7,1.2-2.7,2.7S17,10,18.5,10s2.7-1.2,2.7-2.7S20,4.5,18.5,4.5z
	 M12,2.5c-1.5,0-2.7,1.2-2.7,2.7s1.2,2.7,2.7,2.7s2.7-1.2,2.7-2.7S13.5,2.5,12,2.5z"/>
</svg>
