<?xml version="1.0" encoding="utf-8"?>
<!-- Generator: Adobe Illustrator 22.0.1, SVG Export Plug-In . SVG Version: 6.00 Build 0)  -->
<svg version="1.1" id="Ebene_1" xmlns="http://www.w3.org/2000/svg" xmlns:xlink="http://www.w3.org/1999/xlink" x="0px" y="0px"
	 viewBox="0 0 24 24" style="enable-background:new 0 0 24 24;" xml:space="preserve">
<style type="text/css">
	.st0{fill:none;}
</style>
<rect class="st0" width="24" height="24"/>
<path d="M5.4,21.1c0.5,0,1.4-0.8,2-1.4c0.5-0.6,0.8-1.5,0.8-1.5c2.1,0.9,4.5,0.6,6.6-1c0.2-0.1,0.2-0.4-0.1-0.5
	c-0.5-0.2-1.3-0.6-1.8-0.9c-0.1-0.1-0.1-0.3,0.1-0.3c0.8,0,2.6,0.2,2.8,0c0.2-0.3,4.4-5.9,2.4-12.6c-7,0.4-10.9,6.3-11,6.6
	C6.9,9.6,7.7,11.4,8,12.1c0.1,0.1-0.1,0.3-0.2,0.2c-0.5-0.4-1.1-1-1.5-1.4c-0.2-0.2-0.4-0.1-0.5,0.1c-0.7,2.4-0.2,4.9,1.4,6.5
	c0,0-0.7,0.6-1.1,1.3C5.6,19.5,5.2,20.6,5.4,21.1z"/>
</svg>
