<?xml version="1.0" encoding="utf-8"?>
<!-- Generator: Adobe Illustrator 22.0.1, SVG Export Plug-In . SVG Version: 6.00 Build 0)  -->
<svg version="1.1" id="Ebene_1" xmlns="http://www.w3.org/2000/svg" xmlns:xlink="http://www.w3.org/1999/xlink" x="0px" y="0px"
	 viewBox="0 0 24 24" style="enable-background:new 0 0 24 24;" xml:space="preserve">
<style type="text/css">
	.st0{fill:none;}
</style>
<rect x="0" class="st0" width="24" height="24"/>
<path d="M12,15c0,0,0.3,2.5,2.2,3.7c1.4,0.9,3.8,0.7,4.5,0.6c0.5-0.1,0.1-1.8-0.3-2.7c-0.5-1.3-0.6-1.7-0.2-1.9
	c1.1-0.5,2.7-1.6,3.3-3.6c0.6-2,0.4-4.5,0.3-5.4c0-0.2-0.2-0.4-0.4-0.4c-2.9,0-4.9,1-6.2,2c-1.7,1.4-3.2,4.4-3.2,4.4s-1.5-3-3.2-4.4
	c-1.3-1-3.3-2-6.2-2c-0.2,0-0.4,0.2-0.4,0.4c-0.1,0.9-0.3,3.4,0.3,5.4c0.6,2,2.2,3.1,3.3,3.6c0.4,0.2,0.4,0.5-0.2,1.9
	c-0.4,0.9-0.8,2.6-0.3,2.7c0.6,0.1,3.1,0.3,4.5-0.6C11.7,17.5,12,15,12,15z"/>
</svg>
