<?xml version="1.0" encoding="utf-8"?>
<!-- Generator: Adobe Illustrator 22.0.1, SVG Export Plug-In . SVG Version: 6.00 Build 0)  -->
<svg version="1.1" id="Ebene_1" xmlns="http://www.w3.org/2000/svg" xmlns:xlink="http://www.w3.org/1999/xlink" x="0px" y="0px"
	 viewBox="0 0 24 24" style="enable-background:new 0 0 24 24;" xml:space="preserve">
<path d="M20.8,11l-3.5-6.1c-0.3-0.6-1-1-1.7-1H8.5c-0.7,0-1.3,0.4-1.7,1L3.2,11c-0.3,0.6-0.3,1.3,0,1.9l3.5,6.1c0.3,0.6,1,1,1.7,1
	h7.1c0.7,0,1.3-0.4,1.7-1l3.5-6.1C21.1,12.4,21.1,11.6,20.8,11z M12.4,15.1c-0.6-0.1-1.1-0.2-1.4-0.4c-1.1-0.4-1.8-1.5-1.8-2.7
	c0-1,0.5-1.9,1.3-2.4c-0.3-0.1-1-0.1-1.5,0.1c0.8-0.8,2-0.9,2.6-0.8c0.9,0.1,1.5,0.4,1.9,0.7c0.8,0.5,1.4,1.4,1.4,2.4
	c0,1-0.5,1.9-1.3,2.4c0.3,0.1,1,0.1,1.4-0.1C14.3,15.1,13,15.1,12.4,15.1z"/>
</svg>
