<?xml version="1.0" encoding="utf-8"?>
<!-- Generator: Adobe Illustrator 22.0.1, SVG Export Plug-In . SVG Version: 6.00 Build 0)  -->
<svg version="1.1" id="Ebene_1" xmlns="http://www.w3.org/2000/svg" xmlns:xlink="http://www.w3.org/1999/xlink" x="0px" y="0px"
	 viewBox="0 0 24 24" style="enable-background:new 0 0 24 24;" xml:space="preserve">
<path d="M21.3,11.8l-6.6-2.5l-0.1,0l-2.5-6.6c-0.1-0.2-0.4-0.2-0.5,0L9.2,9.2L9.1,9.5l-6.4,2.4c-0.2,0.1-0.2,0.4,0,0.5l6.6,2.5
	l0.2,0.1l2.4,6.4c0.1,0.2,0.4,0.2,0.5,0l2.5-6.6l0,0l6.5-2.4C21.5,12.2,21.5,11.9,21.3,11.8z M14.4,9.9l-0.7,1.5
	c-0.2,0.4-0.2,0.8,0,1.2l0.7,1.5c0.1,0.1-0.1,0.3-0.2,0.2l-1.5-0.7c-0.4-0.2-0.8-0.2-1.2,0l-1.5,0.7c-0.1,0.1-0.3-0.1-0.2-0.2
	l0.7-1.5c0.2-0.4,0.2-0.8,0-1.2L9.7,9.9C9.6,9.7,9.7,9.6,9.9,9.6l1.5,0.7c0.4,0.2,0.8,0.2,1.2,0l1.5-0.7C14.3,9.6,14.4,9.7,14.4,9.9
	z M15.8,8.2l0.7-2.4c0.1-0.2,0.2-0.3,0.4-0.4l2.4-0.7c0.2-0.1,0.5,0.2,0.4,0.4l-0.7,2.4c-0.1,0.2-0.2,0.3-0.4,0.4l-2.4,0.7
	C15.9,8.7,15.7,8.4,15.8,8.2z M8.1,8.6L5.7,7.9C5.5,7.8,5.4,7.7,5.3,7.5L4.6,5.1C4.6,4.9,4.8,4.7,5,4.7l2.4,0.7
	c0.2,0.1,0.3,0.2,0.4,0.4l0.7,2.4C8.5,8.4,8.3,8.7,8.1,8.6z M16.2,15.5l2.4,0.7c0.2,0.1,0.3,0.2,0.4,0.4l0.7,2.4
	c0.1,0.2-0.2,0.5-0.4,0.4l-2.4-0.7c-0.2-0.1-0.3-0.2-0.4-0.4l-0.7-2.4C15.7,15.7,15.9,15.5,16.2,15.5z M8.5,15.9l-0.7,2.4
	c-0.1,0.2-0.2,0.3-0.4,0.4L5,19.4c-0.2,0.1-0.5-0.2-0.4-0.4l0.7-2.4c0.1-0.2,0.2-0.3,0.4-0.4l2.4-0.7C8.3,15.5,8.5,15.7,8.5,15.9z"
	/>
</svg>
