<?xml version="1.0" encoding="utf-8"?>
<!-- Generator: Adobe Illustrator 22.0.1, SVG Export Plug-In . SVG Version: 6.00 Build 0)  -->
<svg version="1.1" id="Ebene_1" xmlns="http://www.w3.org/2000/svg" xmlns:xlink="http://www.w3.org/1999/xlink" x="0px" y="0px"
	 viewBox="0 0 24 24" style="enable-background:new 0 0 24 24;" xml:space="preserve">
<path d="M20.2,16c-1.4,2.8-4.3,4.7-7.7,4.7c-4.8,0-8.6-3.9-8.6-8.6c0-4.8,3.9-8.6,8.6-8.6c3.3,0,6.2,1.9,7.7,4.7
	c-1-0.9-2.2-1.4-3.6-1.4c-3,0-5.4,2.4-5.4,5.4c0,3,2.4,5.4,5.4,5.4C17.9,17.4,19.2,16.9,20.2,16z M17.5,13.6
	c0.3-0.5,0.7-0.9,1.2-1.2l1-0.6l-1-0.6c-0.5-0.3-0.9-0.7-1.2-1.2l-0.6-1l-0.6,1c-0.3,0.5-0.7,0.9-1.2,1.2l-1,0.6l1,0.6
	c0.5,0.3,0.9,0.7,1.2,1.2l0.6,1L17.5,13.6z"/>
</svg>
