<?xml version="1.0" encoding="utf-8"?>
<!-- Generator: Adobe Illustrator 22.0.1, SVG Export Plug-In . SVG Version: 6.00 Build 0)  -->
<svg version="1.1" id="Ebene_1" xmlns="http://www.w3.org/2000/svg" xmlns:xlink="http://www.w3.org/1999/xlink" x="0px" y="0px"
	 viewBox="0 0 24 24" style="enable-background:new 0 0 24 24;" xml:space="preserve">
<style type="text/css">
	.st0{fill:none;}
</style>
<rect x="0" class="st0" width="24" height="24"/>
<path d="M12,16.4c0,0,0.2,2.5,1.5,3.6c0,0,0.7-6.4,5.8-6.5l0,0c2-0.2,3.5-1.8,3.5-3.8c0-1.6-1.2-2.8-1.2-2.8c-0.8-0.8-2-1.5-3.9-1.5
	c-3.9,0-5.8,4.8-5.8,4.8s-1.9-4.8-5.8-4.8C4.3,5.5,3.1,6.1,2.3,7c0,0-1.2,1.2-1.2,2.8c0,2,1.6,3.7,3.5,3.8l0,0
	c5,0.1,5.8,6.5,5.8,6.5C11.8,18.9,12,16.4,12,16.4z"/>
</svg>
