<?xml version="1.0" encoding="utf-8"?>
<!-- Generator: Adobe Illustrator 22.0.1, SVG Export Plug-In . SVG Version: 6.00 Build 0)  -->
<svg version="1.1" id="Ebene_1" xmlns="http://www.w3.org/2000/svg" xmlns:xlink="http://www.w3.org/1999/xlink" x="0px" y="0px"
	 viewBox="0 0 24 24" style="enable-background:new 0 0 24 24;" xml:space="preserve">
<style type="text/css">
	.st0{fill:none;}
</style>
<rect x="0" y="0" class="st0" width="24" height="24"/>
<path d="M12,20.1c0,0,2.4,0.1,4.3-2.3c1.7-2.2,1.8-2.2,3.5-1.8c0,0,0.6,0.1,0.7,0.1c1.1,0,2.1-0.9,2.1-2.1S21.7,12,20.6,12
	c-1.7,0-2.1,1.8-2.2,1.9c-0.2,0.3-0.5,0.4-0.8,0.4c-0.9,0.1-1.5-0.8-1.8-1.6c-0.3-0.8-0.4-2.6,0-3.7c0.2-0.5,0.4-0.8,0.8-0.9
	c1.6-0.3,2.1-1.4,2-2.2c-0.1-1.2-1-2.2-2.2-2.2c-1.2,0-2.2,1-2.2,2.2c0,0.5,0.4,1.2,0.4,1.2c0.1,0.3,0.1,0.7-0.2,1.2
	c-0.5,0.7-1.3,2.2-2.4,2.2s-1.9-1.5-2.4-2.2C9.2,8,9.2,7.6,9.3,7.3c0,0,0.3-0.7,0.4-1.2c0-1.2-1-2.2-2.2-2.2c-1.2,0-2.1,1-2.2,2.2
	c-0.1,0.7,0.4,1.8,2,2.2C7.8,8.3,8,8.7,8.2,9.1c0.4,1.1,0.3,2.9,0,3.7s-0.8,1.7-1.8,1.6c-0.3-0.1-0.6-0.2-0.8-0.4
	C5.5,13.8,5.2,12,3.4,12c-1.1,0-2.1,0.9-2.1,2.1s1,2.1,2.1,2.1c0.2,0,0.7-0.1,0.7-0.1c1.7-0.5,1.8-0.4,3.5,1.8
	C9.6,20.2,12,20.1,12,20.1z"/>
</svg>
