<?xml version="1.0" encoding="utf-8"?>
<!-- Generator: Adobe Illustrator 22.0.1, SVG Export Plug-In . SVG Version: 6.00 Build 0)  -->
<svg version="1.1" id="Ebene_1" xmlns="http://www.w3.org/2000/svg" xmlns:xlink="http://www.w3.org/1999/xlink" x="0px" y="0px"
	 viewBox="0 0 24 24" style="enable-background:new 0 0 24 24;" xml:space="preserve">
<style type="text/css">
	.st0{fill:none;}
</style>
<rect class="st0" width="24" height="24"/>
<g>
	<path d="M12,8.8c-1.8,0-3.3,1.4-3.3,3.2s1.4,3.3,3.2,3.3c0,0,0.1,0,0.1,0c1.8,0,3.2-1.5,3.2-3.3C15.1,10.2,13.7,8.8,12,8.8"/>
	<path d="M16.3,12.9h0.9c-0.4,2.2-2.2,4-4.4,4.3v-0.8c0,0,0,0,0,0h-1.7c0,0,0,0,0,0v0.8c-2.2-0.4-3.9-2.1-4.3-4.3h0.8c0,0,0,0,0,0
		v-1.7c0,0,0,0,0,0H6.8C7.1,9,8.8,7.2,11,6.8v0.9c0,0,0,0,0,0h1.7c0,0,0,0,0,0V6.8c2.3,0.3,4.1,2.1,4.4,4.4h-0.9c0,0,0,0,0,0
		c0,0,0,0,0,0L16.3,12.9L16.3,12.9 M20.8,11.1H19c-0.4-3.2-2.9-5.7-6.1-6.1V3.2c0,0,0,0,0,0h-1.7c0,0,0,0,0,0V5
		C8,5.5,5.5,8,5.1,11.1H3.2c0,0,0,0,0,0c0,0,0,0,0,0v1.7c0,0,0,0,0,0h1.9c0.4,3.1,2.9,5.6,6,6v1.9c0,0,0,0,0,0h1.7c0,0,0,0,0,0
		c0,0,0,0,0,0v-1.9c3.2-0.4,5.7-2.9,6.1-6h1.8c0,0,0,0,0,0c0,0,0,0,0,0L20.8,11.1C20.8,11.1,20.8,11.1,20.8,11.1
		C20.8,11.1,20.8,11.1,20.8,11.1"/>
</g>
</svg>
