<?xml version="1.0" encoding="utf-8"?>
<!-- Generator: Adobe Illustrator 22.0.1, SVG Export Plug-In . SVG Version: 6.00 Build 0)  -->
<svg version="1.1" id="Ebene_1" xmlns="http://www.w3.org/2000/svg" xmlns:xlink="http://www.w3.org/1999/xlink" x="0px" y="0px"
	 viewBox="0 0 24 24" style="enable-background:new 0 0 24 24;" xml:space="preserve">
<style type="text/css">
	.st0{fill:none;}
</style>
<rect class="st0" width="24" height="24"/>
<path d="M18.1,14.2c0,0.3,0,0.4,0,0.7c-0.3,3.6-2.8,5.9-6.1,5.9c-3.2,0-5.5-2.2-6.1-5.6c0-0.3-0.1-0.7-0.1-1v-0.4
	c0.1-1.4,0.7-2.9,1.7-3.7l0.8-0.7v1c0,0.4,0.3,0.8,0.6,1.1c0.1,0.1,0.7,0.4,1.2,0.4c0.3,0,0.6,0,0.8-0.1c0.4-0.1,0.7-0.6,0.7-1
	c0-0.6-0.1-0.8-0.6-1.2c-0.3-0.6-0.7-1-0.8-2.1c-0.3-1.4,0.6-2.8,2.2-3.7l0.8-0.6l-0.3,1c0,0.1,0,0.3,0,0.4c0,1,0.8,2.3,2.6,3.9
	c2.2,2.1,2.6,3.9,2.6,5.4L18.1,14.2L18.1,14.2z"/>
</svg>
