<?xml version="1.0" encoding="utf-8"?>
<!-- Generator: Adobe Illustrator 22.0.1, SVG Export Plug-In . SVG Version: 6.00 Build 0)  -->
<svg version="1.1" id="Ebene_1" xmlns="http://www.w3.org/2000/svg" xmlns:xlink="http://www.w3.org/1999/xlink" x="0px" y="0px"
	 viewBox="0 0 24 24" style="enable-background:new 0 0 24 24;" xml:space="preserve">
<style type="text/css">
	.st0{fill:none;}
</style>
<rect class="st0" width="24" height="24"/>
<path d="M17.3,14.5c-0.1,0.4-0.3,4.5-0.6,4.8c-0.4,0.3-4.2-0.8-4.8-0.8c-0.6,0-4.3,1.1-4.8,0.8c-0.4-0.3-0.4-4.3-0.6-4.8
	s-2.4-3.8-2.2-4.2c0.1-0.4,3.9-1.8,4.3-2.1c0.4-0.3,2.8-3.5,3.2-3.5c0.4,0,2.9,3.2,3.2,3.5c0.4,0.3,4.2,1.5,4.3,2.1
	C19.7,10.7,17.5,13.9,17.3,14.5"/>
</svg>
