<?xml version="1.0" encoding="utf-8"?>
<!-- Generator: Adobe Illustrator 22.0.1, SVG Export Plug-In . SVG Version: 6.00 Build 0)  -->
<svg version="1.1" id="Ebene_1" xmlns="http://www.w3.org/2000/svg" xmlns:xlink="http://www.w3.org/1999/xlink" x="0px" y="0px"
	 viewBox="0 0 24 24" style="enable-background:new 0 0 24 24;" xml:space="preserve">
<style type="text/css">
	.st0{fill:none;}
</style>
<rect class="st0" width="24" height="24"/>
<path d="M14.5,10.1h1.7c0.3,0,0.5,0.4,0.3,0.5L8.8,21c-0.3,0.3-0.7,0.1-0.7-0.3l1.3-7.5c0.1-0.1,0-0.3-0.1-0.3c0,0,0,0-0.1,0H7.8
	c-0.1,0-0.4-0.3-0.4-0.4l0,0l1.7-9.4c0-0.1,0.1-0.3,0.4-0.3h6.7c0.3,0,0.4,0.3,0.4,0.5l-2.4,6.2C14.1,9.7,14.2,10,14.5,10.1
	L14.5,10.1"/>
</svg>
