<?xml version="1.0" encoding="utf-8"?>
<!-- Generator: Adobe Illustrator 22.0.1, SVG Export Plug-In . SVG Version: 6.00 Build 0)  -->
<svg version="1.1" id="Ebene_1" xmlns="http://www.w3.org/2000/svg" xmlns:xlink="http://www.w3.org/1999/xlink" x="0px" y="0px"
	 viewBox="0 0 24 24" style="enable-background:new 0 0 24 24;" xml:space="preserve">
<style type="text/css">
	.st0{fill:none;}
</style>
<rect class="st0" width="24" height="24"/>
<path d="M2.5,13.9c0-2.4,5.9-7.1,9.5-7.1s9.5,4.7,9.5,7.1S15.6,21,12,21S2.5,16.3,2.5,13.9z M10,6.4c0,0,1.4-0.4,2-0.4s2,0.4,2,0.4
	L12,3L10,6.4z M7.9,7.4L5.1,5.8v3.3C6.3,7.7,7.9,7.4,7.9,7.4z M19,9.2V5.8l-2.7,1.7C16.2,7.5,17.8,7.8,19,9.2z M12,9.7
	c-2.3,0-4.2,1.9-4.2,4.2s1.9,4.2,4.2,4.2s4.2-1.9,4.2-4.2S14.3,9.7,12,9.7z"/>
</svg>
