<?xml version="1.0" encoding="utf-8"?>
<!-- Generator: Adobe Illustrator 22.0.1, SVG Export Plug-In . SVG Version: 6.00 Build 0)  -->
<svg version="1.1" id="Ebene_1" xmlns="http://www.w3.org/2000/svg" xmlns:xlink="http://www.w3.org/1999/xlink" x="0px" y="0px"
	 viewBox="0 0 24 24" style="enable-background:new 0 0 24 24;" xml:space="preserve">
<style type="text/css">
	.st0{fill:none;}
</style>
<rect class="st0" width="24" height="24"/>
<path d="M1.7,8.1C2,10.6,3,11.2,3.5,11.4c0.1,0,0.2,0,0.2-0.1c1.2-5.7,4-6.8,4-6.8c-2.2,2.7-2.6,7.9-1,9.8c1.1,1.3,4,1.5,4,1.5v3.8
	C-0.1,17.3,1.7,8.1,1.7,8.1z M22.3,8.1c-0.3,2.4-1.3,3.1-1.8,3.2c-0.1,0-0.2,0-0.2-0.1c-1.2-5.7-4-6.8-4-6.8c2.2,2.7,2.6,7.9,1,9.8
	c-1.1,1.3-4,1.5-4,1.5v3.8C24.1,17.3,22.3,8.1,22.3,8.1z"/>
</svg>
