<?xml version="1.0" encoding="utf-8"?>
<!-- Generator: Adobe Illustrator 22.0.1, SVG Export Plug-In . SVG Version: 6.00 Build 0)  -->
<svg version="1.1" id="Ebene_1" xmlns="http://www.w3.org/2000/svg" xmlns:xlink="http://www.w3.org/1999/xlink" x="0px" y="0px"
	 viewBox="0 0 24 24" style="enable-background:new 0 0 24 24;" xml:space="preserve">
<style type="text/css">
	.st0{fill:none;}
</style>
<rect class="st0" width="24" height="24"/>
<path d="M1.3,15.8c-0.1,0-0.1-0.1-0.1-0.1c0.2-0.7,1.4-3.9,2.2-4.6c0,0,0.1,0,0.1,0c0.8,0.7,2,3.9,2.2,4.6c0,0.1,0,0.1-0.1,0.1H3.5
	H1.3z M9.2,15.8h2.2c0.1,0,0.1-0.1,0.1-0.1c-0.2-0.7-1.4-3.9-2.2-4.6c0,0-0.1,0-0.1,0c-0.8,0.7-2,3.9-2.2,4.6c0,0.1,0,0.1,0.1,0.1
	H9.2z M14.8,15.8H17c0.1,0,0.1-0.1,0.1-0.1c-0.2-0.7-1.4-3.9-2.2-4.6c0,0-0.1,0-0.1,0c-0.8,0.7-2,3.9-2.2,4.6c0,0.1,0,0.1,0.1,0.1
	H14.8z M20.5,15.8h2.2c0.1,0,0.1-0.1,0.1-0.1c-0.2-0.7-1.4-3.9-2.2-4.6c0,0-0.1,0-0.1,0c-0.8,0.7-2,3.9-2.2,4.6c0,0.1,0,0.1,0.1,0.1
	H20.5z M17.7,8.2h-2.2c-0.1,0-0.1,0.1-0.1,0.1c0.2,0.7,1.4,3.9,2.2,4.6c0,0,0.1,0,0.1,0c0.8-0.7,2-3.9,2.2-4.6c0-0.1,0-0.1-0.1-0.1
	H17.7z M12,8.2H9.8c-0.1,0-0.1,0.1-0.1,0.1c0.2,0.7,1.4,3.9,2.2,4.6c0,0,0.1,0,0.1,0c0.8-0.7,2-3.9,2.2-4.6c0-0.1,0-0.1-0.1-0.1H12z
	 M6.3,8.2H4.1C4,8.2,4,8.2,4,8.3c0.2,0.7,1.4,3.9,2.2,4.6c0,0,0.1,0,0.1,0c0.8-0.7,2-3.9,2.2-4.6c0-0.1,0-0.1-0.1-0.1H6.3z"/>
</svg>
