<?xml version="1.0" encoding="utf-8"?>
<!-- Generator: Adobe Illustrator 22.0.1, SVG Export Plug-In . SVG Version: 6.00 Build 0)  -->
<svg version="1.1" id="Ebene_1" xmlns="http://www.w3.org/2000/svg" xmlns:xlink="http://www.w3.org/1999/xlink" x="0px" y="0px"
	 viewBox="0 0 24 24" style="enable-background:new 0 0 24 24;" xml:space="preserve">
<style type="text/css">
	.st0{fill:none;}
</style>
<rect class="st0" width="24" height="24"/>
<path d="M18.2,9.4c-0.1-1.4-1-2-1.6-2c-0.6,0-1.4,0.2-1.4,1c0,0.5,0.7,0.6,1.1,0.6c0.3,0,0.3,0.2,0.3,0.3c0,0.2-0.3,0.6-1,0.6
	c-0.5,0-2-0.4-1.7-2.1c0.3-1.9,1.9-2.5,3-2.6c1.2-0.1,3.6,0.7,4.3,3.3c0.9,3.3,0.4,5.6-0.9,7.6c-1,1.4-3.3,3-7.9,3
	c-5.7,0-10-4-10-9.1c0-3,1.7-5,4.5-5c1.8,0,2.5,1.5,2.6,3.6c0.1,2.5,1.9,3.9,3.9,4C13.3,12.7,18.3,12.7,18.2,9.4z"/>
</svg>
