<?xml version="1.0" encoding="utf-8"?>
<!-- Generator: Adobe Illustrator 22.0.1, SVG Export Plug-In . SVG Version: 6.00 Build 0)  -->
<svg version="1.1" id="Ebene_1" xmlns="http://www.w3.org/2000/svg" xmlns:xlink="http://www.w3.org/1999/xlink" x="0px" y="0px"
	 viewBox="0 0 15 15" style="enable-background:new 0 0 15 15;" xml:space="preserve">
<path d="M11.2,12.4l-1.6-1.6l1.1-1.1l1.6,1.6L11.2,12.4z M8.4,10.4l2-2L11,9.1l-2,2L8.4,10.4z M8.8,7.7l1,1L8.7,9.8l-1-1L8.8,7.7z
	 M6,11.1l-2-2l0.6-0.6l2,2L6,11.1z M3.8,12.4l-1.1-1.1l1.6-1.6l1.1,1.1L3.8,12.4z M3.3,2.2l4,4L6.2,7.4l-3-3L3.3,2.2L3.3,2.2z
	 M11.7,2.2l0.1,2.1L6.3,9.8L5.2,8.7L11.7,2.2L11.7,2.2z"/>
</svg>
