<?xml version="1.0" encoding="utf-8"?>
<!-- Generator: Adobe Illustrator 22.0.1, SVG Export Plug-In . SVG Version: 6.00 Build 0)  -->
<svg version="1.1" id="Ebene_1" xmlns="http://www.w3.org/2000/svg" xmlns:xlink="http://www.w3.org/1999/xlink" x="0px" y="0px"
	 viewBox="0 0 81.6 48.1" style="enable-background:new 0 0 81.6 48.1;" xml:space="preserve">
<style type="text/css">
	.main_logo_fill1{fill:#FFFFFF;}
	.main_logo_fill2{fill:#3A1E6F;}
</style>
<path class="main_logo_fill1" d="M32.1,44.4c-1.1,0-2.1-0.8-2.2-2l-0.6-4.9h-8.2L18.5,43c-0.4,0.8-1.2,1.3-2,1.3H7c-0.8,0-1.5-0.4-1.9-1.1
	C4.7,42.5,4.7,41.8,5,41L24.3,4.8c0.4-0.7,1.2-1.2,2-1.2h8c1.1,0,2,0.8,2.2,1.8l6.7,36.3c0.1,0.7-0.1,1.3-0.5,1.8s-1.1,0.8-1.7,0.8
	h-8.9V44.4z M27.8,26.4L27.5,24l-1.1,2.4H27.8z"/>
<path class="main_logo_fill2" d="M34.3,5.9L41,42.2h-8.9l-0.9-6.8H19.6l-3.2,6.8H7L26.2,5.9H34.3 M22.8,28.6h7.5l-1.6-12.5L22.8,28.6 M34.3,1.4
	h-8c-1.7,0-3.2,0.9-4,2.4L3,40.1c-0.7,1.4-0.7,3.1,0.1,4.4C4,45.8,5.4,46.7,7,46.7h9.4c1.7,0,3.3-1,4.1-2.6l2-4.2h4.8l0.4,2.9
	c0.3,2.2,2.2,3.9,4.5,3.9H41c1.3,0,2.6-0.6,3.5-1.6s1.2-2.4,1-3.7L38.7,5.1C38.3,2.9,36.5,1.4,34.3,1.4L34.3,1.4z"/>
<path class="main_logo_fill1" d="M43.4,44.4c-0.7,0-1.3-0.3-1.7-0.8s-0.6-1.2-0.5-1.8l6.3-36.3c0.2-1.1,1.1-1.9,2.2-1.9h10.7
	c3.6,0,6.8,1,9.5,2.9s4.7,4.6,5.8,7.9c1,2.8,1.3,5.9,0.9,9.1l-0.2,1.5c-0.5,3.6-1.7,6.9-3.6,9.8c-1.9,2.9-4.4,5.3-7.4,7
	c-3,1.7-6.3,2.6-9.8,2.6l0,0H43.4z M55.8,33.3c2.2,0,3.8-0.8,5.1-2.5c1.5-1.9,2.4-5,2.7-9.2v-0.8c0.1-2.1-0.2-3.7-0.9-4.7
	c-0.4-0.5-1-1.1-2.5-1.2h-1.3L55.8,33.3z"/>
<path class="main_logo_fill2" d="M49.7,5.9h10.7c3.1,0,5.9,0.8,8.2,2.5c2.3,1.7,4,3.9,5,6.8c0.8,2.5,1.1,5.2,0.8,8.1l-0.2,1.5
	c-0.4,3.3-1.5,6.2-3.2,8.9c-1.7,2.6-3.9,4.7-6.6,6.2c-2.7,1.5-5.6,2.3-8.7,2.3H43.4L49.7,5.9 M55.7,35.4c2.9,0,5.3-1.1,7.1-3.4
	s2.8-5.7,3.2-10.4v-0.8c0.1-2.7-0.3-4.7-1.2-6.1c-0.9-1.4-2.4-2.1-4.3-2.2h-3.3l-4,22.8L55.7,35.4 M49.7,1.4c-2.2,0-4.1,1.6-4.4,3.7
	L39,41.4c-0.2,1.3,0.1,2.6,1,3.7c0.9,1,2.1,1.6,3.4,1.6h12.2c3.9,0,7.6-1,10.9-2.9c3.3-1.9,6.1-4.5,8.2-7.7
	c2.1-3.2,3.4-6.8,3.9-10.7v-0.1l0.2-1.5c0.4-3.6,0.1-7-1-10.1c-1.3-3.8-3.5-6.8-6.7-9c-3-2.3-6.6-3.4-10.7-3.4H49.7L49.7,1.4
	L49.7,1.4z"/>
</svg>
