<?xml version="1.0" encoding="utf-8"?>
<!-- Generator: Adobe Illustrator 22.0.1, SVG Export Plug-In . SVG Version: 6.00 Build 0)  -->
<svg version="1.1" id="Ebene_1" xmlns="http://www.w3.org/2000/svg" xmlns:xlink="http://www.w3.org/1999/xlink" x="0px" y="0px"
	 viewBox="0 0 24 24" style="enable-background:new 0 0 24 24;" xml:space="preserve">
<style type="text/css">
	.st0{fill:none;}
</style>
<rect class="st0" width="24" height="24"/>
<g>
	<polygon points="10.8,1.8 11.9,4.6 7.2,14.9 5.6,14 7.9,3.8 	"/>
	<polygon points="20.3,7.6 17.5,7.8 10.9,17 12.5,18 20.1,11 	"/>
	<polygon points="15.9,4.2 12.6,5 7.9,15.3 10.2,16.6 16.8,7.4 	"/>
	<circle cx="6.4" cy="20.6" r="1.6"/>
	<path d="M11.2,20.5l-7-4.1c-0.4-0.3-0.6-0.9-0.4-1.4l0,0c0.3-0.4,0.9-0.6,1.4-0.4l7,4c0.4,0.3,0.7,0.8,0.4,1.4l0,0
		C12.2,20.7,11.6,20.8,11.2,20.5z"/>
</g>
</svg>
