<?xml version="1.0" encoding="utf-8"?>
<!-- Generator: Adobe Illustrator 22.0.1, SVG Export Plug-In . SVG Version: 6.00 Build 0)  -->
<svg version="1.1" id="Ebene_1" xmlns="http://www.w3.org/2000/svg" xmlns:xlink="http://www.w3.org/1999/xlink" x="0px" y="0px"
	 viewBox="0 0 24 24" style="enable-background:new 0 0 24 24;" xml:space="preserve">
<style type="text/css">
	.st0{fill:none;}
</style>
<rect class="st0" width="24" height="24"/>
<g>
	<polygon points="14.4,2.5 15.4,5.1 9.6,15.1 8,14.2 10.7,3.8 	"/>
	<polygon points="19.1,5.2 16.1,5.5 10.3,15.5 12.2,16.6 19.5,9 	"/>
	<circle cx="7.4" cy="19.8" r="1.7"/>
	<path d="M12.1,19.8L5,15.7c-0.4-0.3-0.6-0.9-0.4-1.4l0,0c0.3-0.4,0.8-0.7,1.4-0.4l7.1,4.1c0.4,0.3,0.7,0.8,0.4,1.4l0,0
		C13.2,20,12.6,20.2,12.1,19.8z"/>
</g>
</svg>
