<?xml version="1.0" encoding="utf-8"?>
<!-- Generator: Adobe Illustrator 22.0.1, SVG Export Plug-In . SVG Version: 6.00 Build 0)  -->
<svg version="1.1" id="Ebene_1" xmlns="http://www.w3.org/2000/svg" xmlns:xlink="http://www.w3.org/1999/xlink" x="0px" y="0px"
	 viewBox="0 0 24 24" style="enable-background:new 0 0 24 24;" xml:space="preserve">
<style type="text/css">
	.st0{fill:none;}
</style>
<rect class="st0" width="24" height="24"/>
<g>
	<polygon points="14.3,2.8 15.3,5.3 9.7,15 8.1,14.1 10.7,4.1 	"/>
	<polygon points="18.9,5.4 16,5.7 10.4,15.4 12.2,16.5 19.3,9.1 	"/>
	<circle cx="7.5" cy="19.6" r="1.6"/>
	<path d="M12.1,19.6l-6.9-4c-0.4-0.3-0.6-0.9-0.4-1.4l0,0c0.3-0.4,0.8-0.7,1.4-0.4l6.9,4c0.4,0.3,0.7,0.8,0.4,1.4l0,0
		C13.2,19.7,12.6,19.9,12.1,19.6z"/>
</g>
</svg>
