<?xml version="1.0" encoding="utf-8"?>
<!-- Generator: Adobe Illustrator 22.0.1, SVG Export Plug-In . SVG Version: 6.00 Build 0)  -->
<svg version="1.1" id="Ebene_1" xmlns="http://www.w3.org/2000/svg" xmlns:xlink="http://www.w3.org/1999/xlink" x="0px" y="0px"
	 viewBox="0 0 24 24" style="enable-background:new 0 0 24 24;" xml:space="preserve">
<style type="text/css">
	.st0{fill:none;}
</style>
<rect class="st0" width="24" height="24"/>
<path d="M18.1,6.8c-1-0.2-2-0.5-2.9-1c-1-0.5-2-1.2-2.8-1.9c-0.2-0.2-0.6-0.2-0.8,0c-0.9,0.7-1.8,1.4-2.8,1.9
	c-0.9,0.5-1.9,0.8-2.9,1c-0.3,0-0.5,0.3-0.5,0.6c0,3.2,0.4,5.6,1.4,7.6s2.6,3.6,4.8,5.1c0.2,0.1,0.5,0.1,0.7,0
	c2.3-1.5,3.9-3.1,4.9-5.1s1.4-4.4,1.4-7.6C18.6,7.1,18.4,6.8,18.1,6.8z M16,14.4c-0.8,1.5-2,2.8-3.8,4c-0.2,0.1-0.4,0.1-0.5,0
	c-1.7-1.2-2.9-2.4-3.7-4c-0.8-1.5-1.1-3.4-1.1-5.9C6.9,8.2,7,8,7.3,8C8,7.8,8.8,7.6,9.5,7.2c0.8-0.4,1.5-0.9,2.2-1.5
	c0.2-0.2,0.5-0.2,0.6,0c0.6,0.5,1.4,1.1,2.2,1.5C15.2,7.6,16,7.8,16.7,8c0.2,0,0.4,0.2,0.4,0.5C17.1,10.9,16.8,12.8,16,14.4z"/>
</svg>
