<?xml version="1.0" encoding="utf-8"?>
<!-- Generator: Adobe Illustrator 22.0.1, SVG Export Plug-In . SVG Version: 6.00 Build 0)  -->
<svg version="1.1" id="Ebene_1" xmlns="http://www.w3.org/2000/svg" xmlns:xlink="http://www.w3.org/1999/xlink" x="0px" y="0px"
	 viewBox="0 0 24 24" style="enable-background:new 0 0 24 24;" xml:space="preserve">
<style type="text/css">
	.st0{fill:none;}
	.st1{fill:#FFFFFF;}
</style>
<rect class="st0" width="24" height="24"/>
<path d="M18,15.5c-1.2,2.3-3,4.2-5.7,5.9c-0.2,0.1-0.6,0.1-0.8,0C9,19.7,7.1,17.8,6,15.5s-1.6-5.1-1.6-8.8C4.4,6.4,4.6,6,4.9,6
	c1.2-0.2,2.3-0.6,3.4-1.2c1.2-0.6,2.2-1.4,3.2-2.2c0.2-0.2,0.7-0.2,0.9,0c0.9,0.8,2.1,1.6,3.2,2.2c1,0.6,2.2,0.9,3.4,1.2
	c0.3,0,0.6,0.3,0.6,0.7C19.6,10.4,19.2,13.2,18,15.5"/>
<path class="st1" d="M16.5,14.7c-0.9,1.7-2.3,3.1-4.3,4.5c-0.2,0.1-0.4,0.1-0.6,0c-1.9-1.3-3.3-2.7-4.2-4.5C6.6,12.9,6.2,10.8,6.2,8
	c0-0.3,0.2-0.5,0.4-0.5c0.9-0.2,1.7-0.4,2.5-0.9c0.9-0.4,1.7-1,2.4-1.7c0.2-0.2,0.5-0.2,0.7,0c0.7,0.6,1.6,1.2,2.4,1.7
	c0.8,0.4,1.7,0.7,2.5,0.9c0.3,0,0.4,0.3,0.4,0.5C17.8,10.8,17.4,12.9,16.5,14.7"/>
<path d="M15.3,13.9c-0.6,1.3-1.7,2.3-3.1,3.3c-0.1,0.1-0.3,0.1-0.4,0c-1.4-1-2.4-2-3.1-3.3C8,12.7,7.8,11.1,7.8,9.1
	c0-0.2,0.1-0.4,0.3-0.4C8.7,8.6,9.4,8.4,9.9,8c0.6-0.3,1.2-0.8,1.8-1.2c0.1-0.1,0.4-0.1,0.5,0c0.5,0.4,1.2,0.9,1.8,1.2
	c0.6,0.3,1.2,0.5,1.9,0.6c0.2,0,0.3,0.2,0.3,0.4C16.2,11.1,16,12.7,15.3,13.9"/>
</svg>
