<?xml version="1.0" encoding="utf-8"?>
<!-- Generator: Adobe Illustrator 22.0.1, SVG Export Plug-In . SVG Version: 6.00 Build 0)  -->
<svg version="1.1" id="Ebene_1" xmlns="http://www.w3.org/2000/svg" xmlns:xlink="http://www.w3.org/1999/xlink" x="0px" y="0px"
	 viewBox="0 0 24 24" style="enable-background:new 0 0 24 24;" xml:space="preserve">
<style type="text/css">
	.st0{fill:none;}
</style>
<rect class="st0" width="24" height="24"/>
<path d="M17.2,15c-1,2-2.6,3.6-4.9,5.1c-0.2,0.1-0.5,0.1-0.7,0C9.4,18.6,7.8,17,6.8,15s-1.4-4.4-1.4-7.6c0-0.3,0.2-0.6,0.5-0.6
	c1-0.2,2-0.5,2.9-1c1-0.5,1.9-1.2,2.8-1.9c0.2-0.2,0.6-0.2,0.8,0c0.8,0.7,1.8,1.4,2.8,1.9c0.9,0.5,1.9,0.8,2.9,1
	c0.3,0,0.5,0.3,0.5,0.6C18.6,10.6,18.2,13,17.2,15"/>
</svg>
