<?xml version="1.0" encoding="utf-8"?>
<!-- Generator: Adobe Illustrator 22.0.1, SVG Export Plug-In . SVG Version: 6.00 Build 0)  -->
<svg version="1.1" id="Ebene_1" xmlns="http://www.w3.org/2000/svg" xmlns:xlink="http://www.w3.org/1999/xlink" x="0px" y="0px"
	 viewBox="0 0 24 24" style="enable-background:new 0 0 24 24;" xml:space="preserve">
<style type="text/css">
	.st0{fill:none;}
</style>
<rect class="st0" width="24" height="24"/>
<path d="M19.1,6c-1.2-0.2-2.3-0.6-3.4-1.2c-1.2-0.6-2.3-1.4-3.2-2.2c-0.2-0.2-0.7-0.2-0.9,0c-1,0.8-2.1,1.6-3.2,2.2
	C7.3,5.4,6.1,5.8,4.9,6C4.6,6,4.4,6.3,4.4,6.7c0,3.7,0.5,6.5,1.6,8.8s3,4.2,5.6,5.9c0.2,0.1,0.6,0.1,0.8,0c2.7-1.7,4.5-3.6,5.7-5.9
	c1.2-2.3,1.6-5.1,1.6-8.8C19.6,6.3,19.4,6,19.1,6z M16.6,14.8c-0.9,1.7-2.3,3.2-4.4,4.6c-0.2,0.1-0.5,0.1-0.6,0
	c-2-1.4-3.4-2.8-4.3-4.6C6.4,13,6.1,10.8,6.1,8c0-0.3,0.1-0.6,0.5-0.6c0.8-0.2,1.7-0.5,2.5-0.9c0.9-0.5,1.7-1,2.5-1.7
	c0.2-0.2,0.6-0.2,0.7,0C13,5.3,14,6,14.9,6.5c0.8,0.5,1.7,0.7,2.5,0.9c0.2,0,0.5,0.2,0.5,0.6C17.9,10.7,17.6,12.9,16.6,14.8z"/>
</svg>
